<svg width="283" height="121" viewBox="0 0 283 121" fill="none" xmlns="http://www.w3.org/2000/svg">
<g clip-path="url(#clip0_517_18)" filter="url(#filter0_d_517_18)">
<path fill-rule="evenodd" clip-rule="evenodd" d="M113.949 93.5949H117.742L115.846 88.8877L113.949 93.5949Z" fill="#00CFA6"/>
<path fill-rule="evenodd" clip-rule="evenodd" d="M189.092 88.5803C188.734 88.171 188.272 87.8128 187.709 87.6082C187.196 87.3523 186.581 87.25 185.915 87.25C185.248 87.25 184.684 87.3523 184.172 87.6082C183.659 87.864 183.198 88.171 182.839 88.5803C182.48 88.9896 182.173 89.5013 181.968 90.0641C181.763 90.6269 181.66 91.2409 181.66 91.906C181.66 92.5712 181.763 93.1852 181.968 93.748C182.173 94.3108 182.48 94.8224 182.839 95.2318C183.198 95.6411 183.659 95.9992 184.172 96.2039C184.684 96.4597 185.299 96.5621 185.915 96.5621C186.581 96.5621 187.145 96.4597 187.709 96.2039C188.221 95.9481 188.682 95.6411 189.092 95.2318C189.451 94.8224 189.759 94.3108 189.964 93.748C190.169 93.1852 190.271 92.5712 190.271 91.906C190.271 91.2409 190.169 90.6269 189.964 90.0641C189.759 89.5013 189.451 88.9896 189.092 88.5803Z" fill="#00CFA6"/>
<path fill-rule="evenodd" clip-rule="evenodd" d="M272.949 77.0684H10V92.5714C10 100.553 16.5096 107 24.557 107H258.494C266.49 107 273.051 100.502 273.051 92.5714V77.0684H272.949ZM100.315 98.0972C99.3923 98.6089 98.2647 98.8647 97.0345 98.8647C95.9581 98.8647 95.0355 98.7112 94.1641 98.3531C93.2927 97.9949 92.5751 97.5344 92.0113 96.8693C91.3962 96.2553 90.9349 95.4878 90.6274 94.6692C90.3198 93.7994 90.1661 92.9296 90.1661 91.9062C90.1661 90.9341 90.3198 90.0131 90.6786 89.1945C91.0374 88.3247 91.4987 87.6084 92.1138 86.9944C92.7289 86.3804 93.4465 85.8688 94.2666 85.5106C95.0867 85.1525 96.0606 84.9478 97.0345 84.9478C98.2134 84.9478 99.2898 85.2036 100.212 85.6641C101.135 86.1246 101.955 86.8921 102.57 87.8642L100.622 89.1433C99.7511 87.8642 98.5722 87.1991 97.0858 87.1991C96.4194 87.1991 95.8043 87.3014 95.2918 87.5572C94.7279 87.813 94.3179 88.12 93.9078 88.5805C93.549 88.9898 93.2415 89.5015 93.0365 90.0643C92.8314 90.6271 92.7289 91.2411 92.7289 91.9062C92.7289 92.5714 92.8314 93.1854 93.0365 93.7482C93.2415 94.311 93.549 94.8227 93.9078 95.232C94.2666 95.6413 94.7279 95.9995 95.2918 96.2041C95.8043 96.4599 96.4194 96.5623 97.0858 96.5623C97.9059 96.5623 98.6235 96.3576 99.2386 95.9995C99.8024 95.6413 100.315 95.1297 100.725 94.5157L102.673 95.7436C102.006 96.8181 101.238 97.5856 100.315 98.0972ZM119.741 98.6601L118.562 95.7436H113.078L111.899 98.6601H109.336L115.231 84.999H116.358L122.304 98.6601H119.741ZM138.296 96.5111C138.091 97.0228 137.784 97.4321 137.374 97.7902C136.964 98.1484 136.451 98.4042 135.887 98.6089C135.324 98.8135 134.657 98.8647 133.94 98.8647C131.377 98.8647 129.788 97.7391 129.224 95.4878L131.428 94.6692C131.684 95.3855 131.992 95.8971 132.402 96.2041C132.812 96.5111 133.376 96.6646 134.093 96.6646C134.76 96.6646 135.272 96.5111 135.631 96.2041C135.99 95.8971 136.195 95.4878 136.195 94.925C136.195 94.6692 136.144 94.4645 136.092 94.2598C135.99 94.0552 135.887 93.8505 135.682 93.697C135.477 93.5435 135.221 93.39 134.862 93.2365C134.503 93.083 134.042 92.9807 133.53 92.8272C132.197 92.5202 131.223 92.0086 130.608 91.3434C129.993 90.6783 129.685 89.8085 129.685 88.734C129.685 88.1712 129.788 87.6595 129.993 87.1991C130.198 86.7386 130.454 86.3292 130.864 86.0223C131.223 85.7153 131.684 85.4594 132.248 85.2548C132.812 85.0501 133.376 84.999 134.093 84.999C136.297 84.999 137.681 85.9199 138.296 87.7619L136.092 88.6829C135.836 87.7107 135.118 87.2502 133.991 87.2502C133.427 87.2502 132.966 87.3526 132.658 87.6084C132.351 87.8642 132.197 88.1712 132.197 88.6317C132.197 88.8875 132.248 89.0922 132.351 89.2968C132.453 89.5015 132.607 89.655 132.812 89.8085C133.017 89.962 133.325 90.1155 133.683 90.269C134.042 90.4225 134.555 90.576 135.119 90.7295C136.4 91.0876 137.374 91.5993 137.938 92.2644C138.553 92.9296 138.809 93.8505 138.809 94.9762C138.655 95.4878 138.553 96.0506 138.296 96.5111ZM149.829 98.6601H147.266V85.2548H149.829V98.6601ZM170.435 98.7624H169.307L161.772 90.1666V98.6601H159.363V85.1013H160.491L168.026 93.697V85.2548H170.435V98.7624ZM192.321 94.6692C191.963 95.539 191.501 96.2553 190.886 96.8693C190.271 97.4833 189.554 97.9949 188.682 98.3531C187.862 98.7112 186.939 98.9159 185.914 98.9159C184.838 98.9159 183.915 98.7112 183.044 98.3531C182.224 97.9949 181.455 97.4833 180.891 96.8693C180.276 96.2553 179.815 95.4878 179.507 94.6692C179.2 93.7994 179.046 92.8784 179.046 91.9062C179.046 90.9341 179.2 90.0131 179.558 89.1945C179.917 88.3247 180.378 87.6084 180.994 86.9944C181.609 86.3804 182.326 85.8688 183.146 85.5106C183.966 85.1525 184.889 84.9478 185.914 84.9478C186.991 84.9478 187.913 85.1525 188.785 85.5106C189.656 85.8688 190.374 86.3804 190.937 86.9944C191.553 87.6084 192.014 88.3759 192.321 89.1945C192.629 90.0643 192.783 90.9341 192.783 91.9062C192.834 92.8784 192.68 93.7994 192.321 94.6692Z" fill="#00CFA6"/>
<path d="M80.0681 14.5446C80.0681 19.0983 76.1726 23.0892 71.5082 23.0892C66.895 23.0892 62.9482 19.2518 62.9482 14.5446C62.9482 9.83739 66.8438 6 71.5082 6C76.3776 6.05117 80.0681 9.93972 80.0681 14.5446Z" fill="#FF2400"/>
<path d="M132.966 29.229C132.966 16.2842 122.202 6 109.08 6C95.9583 6 85.2455 16.2842 84.9893 29.1266V69.8029H102.827V29.5871C102.827 25.9544 105.8 22.9357 109.336 22.9357C113.027 22.9357 115.846 25.8521 115.846 29.5871V69.8029H132.966V68.3191V29.229Z" fill="#FF2400"/>
<path d="M171.87 46.7275V7.43262H189.964V46.3181C189.964 49.9509 192.68 52.9696 196.474 52.9696C199.959 52.9696 202.983 50.0532 202.983 46.3181V7.43262H220.103V46.5228C220.103 59.4676 209.134 69.8541 196.012 69.8541C182.89 69.8029 172.178 59.5187 171.87 46.7275Z" fill="#FF2400"/>
<path d="M80.0681 28.1035H62.9482V69.7519H80.0681V28.1035Z" fill="#FF2400"/>
<path d="M137.935 30.0992V44.9883H166.946V30.0992H137.935Z" fill="#FF2400"/>
<path d="M51.0569 12.8561C46.3925 8.2001 40.703 6 33.732 6C30.3491 6 27.1199 6.71631 23.6344 8.2001C20.4052 9.63273 17.7398 11.6282 15.4332 14.3399C11.6915 18.7401 10 24.4195 10 31.5314V69.8029H27.0686V32.0942C27.0686 25.9544 29.3239 23.038 33.8345 23.038C35.7823 23.038 37.2688 23.7543 38.4989 24.9823C39.7291 26.2102 40.4467 27.694 40.4467 29.6383C40.4467 31.3779 39.7291 33.0664 38.4989 34.2943C37.2688 35.5223 35.731 36.2386 34.0396 36.2386C33.3732 36.2386 32.7069 36.0851 32.0405 35.8293V53.8394C33.0657 53.8906 33.937 53.9417 34.5521 53.9417C41.0618 53.9417 46.495 51.4858 51.1082 46.8298C55.7726 42.1226 58.0279 36.5456 58.0279 29.843C58.0279 23.1403 55.7726 17.5122 51.0569 12.8561Z" fill="#FF2400"/>
<path d="M266.08 12.8561C261.416 8.2001 255.675 6 248.755 6C245.372 6 242.143 6.71631 238.658 8.2001C235.429 9.63273 232.763 11.6282 230.457 14.3399C226.715 18.7401 225.023 24.3683 225.023 31.4802V69.7518H242.092V32.0942C242.092 25.9544 244.347 23.038 248.858 23.038C250.806 23.038 252.292 23.7543 253.522 24.9823C254.753 26.2102 255.47 27.694 255.47 29.6383C255.47 31.3779 254.753 33.0664 253.522 34.2943C252.292 35.5223 250.754 36.2386 249.063 36.2386C248.397 36.2386 247.73 36.0851 247.064 35.8293V53.8394C248.089 53.8906 248.96 53.9417 249.576 53.9417C256.085 53.9417 261.518 51.4858 266.132 46.8298C270.796 42.1226 273.051 36.5456 273.051 29.843C273 23.1403 270.745 17.5122 266.08 12.8561Z" fill="#FF2400"/>
</g>
<defs>
<filter id="filter0_d_517_18" x="0" y="0" width="283" height="121" filterUnits="userSpaceOnUse" color-interpolation-filters="sRGB">
<feFlood flood-opacity="0" result="BackgroundImageFix"/>
<feColorMatrix in="SourceAlpha" type="matrix" values="0 0 0 0 0 0 0 0 0 0 0 0 0 0 0 0 0 0 127 0" result="hardAlpha"/>
<feOffset dy="4"/>
<feGaussianBlur stdDeviation="5"/>
<feComposite in2="hardAlpha" operator="out"/>
<feColorMatrix type="matrix" values="0 0 0 0 0 0 0 0 0 0 0 0 0 0 0 0 0 0 0.25 0"/>
<feBlend mode="normal" in2="BackgroundImageFix" result="effect1_dropShadow_517_18"/>
<feBlend mode="normal" in="SourceGraphic" in2="effect1_dropShadow_517_18" result="shape"/>
</filter>
<clipPath id="clip0_517_18">
<rect width="263" height="101" fill="white" transform="translate(10 6)"/>
</clipPath>
</defs>
</svg>
